<?xml version="1.0" standalone="no"?>
<!DOCTYPE svg PUBLIC "-//W3C//DTD SVG 20010904//EN"
 "http://www.w3.org/TR/2001/REC-SVG-20010904/DTD/svg10.dtd">
<svg version="1.0" xmlns="http://www.w3.org/2000/svg"
 width="962.000000pt" height="1280.000000pt" viewBox="0 0 962.000000 1280.000000"
 preserveAspectRatio="xMidYMid meet">
<metadata>
Created by potrace 1.15, written by Peter Selinger 2001-2017
</metadata>
<g transform="translate(0.000000,1280.000000) scale(0.100000,-0.100000)"
fill="#000000" stroke="none">
<path d="M720 12649 c-145 -82 -269 -148 -275 -145 -5 2 -70 50 -144 105 -74
56 -138 98 -141 94 -4 -5 -41 -127 -83 -272 l-77 -264 296 -2086 296 -2086
154 -318 154 -318 35 -296 c19 -163 35 -298 35 -301 0 -2 -7 -2 -15 2 -10 3
-15 -1 -15 -12 1 -29 36 -176 48 -197 6 -11 52 -378 102 -815 50 -437 122
-1064 161 -1392 50 -438 66 -603 59 -620 -5 -13 -46 -185 -90 -383 -44 -198
-95 -430 -115 -515 -87 -390 -118 -643 -118 -955 0 -478 89 -818 293 -1123 55
-83 274 -325 360 -399 169 -145 613 -290 1038 -339 184 -22 349 -15 452 20
395 132 553 220 766 431 134 133 213 233 311 393 191 315 349 743 444 1211 17
79 28 115 39 118 11 3 36 100 97 372 l82 367 366 619 c201 340 372 623 380
629 23 17 115 170 106 176 -4 3 121 222 278 488 261 441 288 483 310 480 21
-3 32 9 78 87 29 50 53 93 53 96 0 4 -9 9 -20 12 -17 4 -12 17 52 125 54 91
80 125 110 143 33 20 64 65 195 284 86 143 160 264 165 270 4 5 -42 -96 -103
-225 -124 -262 -172 -366 -165 -359 5 5 1416 2127 2296 3454 l617 930 17 474
c9 261 14 476 13 478 -2 1 -111 -75 -243 -171 -273 -198 -247 -195 -260 -35
-3 49 -10 92 -15 95 -4 2 -195 2 -424 -2 l-416 -7 -42 -84 -42 -84 -204 276
c-122 166 -209 275 -219 275 -9 0 -182 -30 -384 -66 l-367 -68 -83 -202 c-45
-112 -84 -202 -85 -200 -2 2 21 70 52 151 l56 147 -73 76 c-357 378 -633 662
-643 662 -7 0 -124 -40 -261 -89 -137 -49 -372 -132 -521 -186 -150 -53 -276
-94 -281 -91 -5 3 -15 37 -22 76 -7 38 -15 68 -17 66 -2 -2 -11 -33 -19 -67
-8 -35 -19 -81 -25 -102 l-10 -38 -310 303 c-171 167 -346 336 -390 377 l-80
74 -227 -106 c-125 -58 -389 -181 -587 -272 -198 -92 -362 -169 -364 -171 -2
-2 -6 -24 -8 -49 -9 -72 -18 -60 -15 18 l3 72 -396 418 c-218 229 -401 417
-406 417 -5 0 -148 -94 -317 -208 -169 -115 -312 -211 -317 -214 -6 -4 -156
157 -335 357 -179 200 -327 364 -330 364 -3 0 -124 -68 -270 -150z m6101
-1876 c-12 -20 -14 -14 -5 12 4 9 9 14 11 11 3 -2 0 -13 -6 -23z m-5001 -3740
l210 -335 0 -90 0 -90 -32 7 c-106 23 -411 95 -413 97 -2 2 -23 173 -47 381
l-44 377 56 86 55 86 3 -92 3 -91 209 -336z m1095 -213 c103 -168 193 -311
200 -318 10 -11 17 -11 34 -3 11 7 21 8 21 4 0 -12 -43 -227 -46 -231 -1 -2
-36 3 -76 13 -213 47 -645 147 -660 151 -16 5 -18 22 -18 167 l0 162 166 194
c136 158 169 190 179 179 7 -7 97 -150 200 -318z m1135 210 l-12 -51 53 -77
c30 -42 91 -131 136 -196 46 -66 83 -126 83 -133 0 -7 -30 -100 -66 -206 -122
-355 -108 -322 -140 -320 -25 2 -614 133 -622 139 -2 1 16 132 40 290 30 203
47 292 58 301 28 23 475 310 479 307 2 -2 -2 -26 -9 -54z m-2770 -130 c5 -63
13 -137 16 -164 l5 -49 -38 7 c-21 3 -54 10 -74 16 -34 10 -37 13 -43 62 -4
28 -9 65 -12 82 l-5 31 20 -35 21 -35 -2 30 c-1 21 13 52 47 103 26 40 49 71
51 69 2 -1 8 -54 14 -117z m3951 -431 l56 -111 -119 -256 c-66 -142 -123 -260
-127 -265 -6 -6 -529 107 -539 118 -4 4 56 212 68 234 5 10 16 1 39 -33 18
-25 35 -46 39 -46 4 0 121 106 261 235 140 129 257 235 260 235 3 0 31 -50 62
-111z m-3971 27 c32 -7 56 -18 57 -27 3 -15 103 -1167 103 -1181 0 -9 -50 0
-62 11 -4 4 -28 153 -53 331 -53 377 -103 737 -111 795 -3 22 -7 50 -10 63 -5
26 0 26 76 8z m556 -131 c104 -25 192 -45 197 -45 8 0 7 -507 -2 -901 l-6
-265 -129 28 c-71 15 -130 29 -131 30 -4 4 -135 1158 -135 1181 0 9 4 17 9 17
4 0 93 -20 197 -45z m860 -200 c153 -36 309 -73 346 -81 61 -14 67 -18 63 -37
-3 -12 -50 -260 -104 -550 -55 -291 -101 -530 -103 -531 -1 -1 -109 21 -238
49 l-235 52 -6 269 c-19 794 -20 894 -12 894 5 0 135 -29 289 -65z m3227 0
c15 -31 27 -59 27 -64 0 -9 -217 -399 -230 -414 -5 -6 -276 48 -287 57 -2 1
17 49 41 106 l44 103 35 -68 34 -69 149 202 c82 111 151 202 154 202 3 0 18
-25 33 -55z m-2148 -252 c160 -36 293 -69 298 -73 4 -3 -43 -152 -104 -331
-61 -178 -140 -411 -177 -517 -36 -107 -71 -196 -77 -198 -7 -3 -102 15 -211
39 l-199 43 3 30 c6 52 152 1028 157 1052 3 12 9 22 13 22 4 0 138 -30 297
-67z m935 -218 c129 -30 240 -57 247 -59 7 -3 -78 -195 -224 -508 -129 -277
-237 -505 -238 -507 -4 -3 -346 69 -353 75 -7 5 314 1054 323 1054 5 0 116
-25 245 -55z m1500 -55 c22 -40 38 -75 36 -78 -8 -7 -146 29 -146 39 0 12 61
121 66 116 2 -1 22 -36 44 -77z m-724 -127 c63 -15 114 -30 114 -34 0 -10
-530 -951 -545 -967 -11 -12 -23 -12 -71 -1 -33 7 -60 14 -62 15 -2 1 92 230
209 508 139 330 218 506 227 506 8 0 66 -12 128 -27z m606 -141 l67 -17 -289
-474 c-159 -261 -293 -478 -299 -484 -6 -6 -24 -7 -49 -1 l-39 9 224 435 c123
239 237 461 254 493 33 64 34 64 131 39z m-4646 -260 c10 -6 101 -978 92 -987
-3 -3 -139 968 -138 988 0 9 32 9 46 -1z m537 -118 c20 -4 39 -9 41 -13 5 -8
-14 -1385 -19 -1390 -2 -1 -16 1 -31 6 l-28 9 -77 680 c-43 373 -80 695 -82
715 l-5 36 82 -18 c44 -10 98 -22 119 -25z m672 -153 c206 -46 210 -48 207
-72 -3 -25 -241 -1299 -245 -1310 -2 -6 -144 24 -152 33 -3 3 -10 189 -15 414
-5 225 -12 538 -16 697 -4 166 -3 287 2 286 5 0 104 -21 219 -48z m815 -182
c102 -23 187 -43 189 -45 2 -2 -3 -23 -12 -46 -9 -24 -93 -268 -187 -543 -95
-275 -188 -546 -207 -603 l-36 -102 -36 6 c-20 4 -52 12 -71 18 l-36 11 101
672 c55 370 102 673 105 673 3 0 88 -19 190 -41z m777 -175 c87 -20 160 -38
162 -40 2 -1 -129 -286 -290 -633 l-294 -629 -30 5 c-16 4 -46 11 -66 17 l-36
11 196 652 c108 359 197 653 198 653 1 0 73 -16 160 -36z m674 -151 c16 -3 29
-7 29 -9 0 -6 -408 -731 -432 -769 -28 -43 -29 -47 156 394 165 389 171 402
194 396 13 -3 37 -9 53 -12z m535 -125 c1 -2 -103 -176 -233 -388 -129 -212
-234 -380 -232 -374 2 6 93 184 203 396 l198 386 31 -9 c16 -4 31 -10 33 -11z
m-3909 -130 c-3 -8 -6 -5 -6 6 -1 11 2 17 5 13 3 -3 4 -12 1 -19z"/>
</g>
</svg>
